PathFileType	4	(X/Y/Z)	C:/Users/opensim2020/Desktop/walking_exp_matlab/subject03_walking12_straight_03.trc	
DataRate	CameraRate	NumFrames	NumMarkers	Units	OrigDataRate	OrigDataStartFrame	OrigNumFrames	
100.00	100.00	6	48	mm	100.00	1820	185	
Frame#	Time	LFHD			RFHD			LBHD			RBHD			C7			T10			CLAV			STRN			RBAK			LSHO			LUPA			LELB			LFRM			LWRA			LWRB			LFIN			RSHO			RUPA			RELB			RFRM			RWRA			RWRB			RFIN			LASI			RASI			LPSI			RPSI			LTHI			LKNE			LTIB			LANK			LHEE			LTOE			RTHI			RKNE			RTIB			RANK			RHEE			RTOE			*39			*40			*41			*42			*43			*44			*45			*46			*47			
		X1	Y1	Z1	X2	Y2	Z2	X3	Y3	Z3	X4	Y4	Z4	X5	Y5	Z5	X6	Y6	Z6	X7	Y7	Z7	X8	Y8	Z8	X9	Y9	Z9	X10	Y10	Z10	X11	Y11	Z11	X12	Y12	Z12	X13	Y13	Z13	X14	Y14	Z14	X15	Y15	Z15	X16	Y16	Z16	X17	Y17	Z17	X18	Y18	Z18	X19	Y19	Z19	X20	Y20	Z20	X21	Y21	Z21	X22	Y22	Z22	X23	Y23	Z23	X24	Y24	Z24	X25	Y25	Z25	X26	Y26	Z26	X27	Y27	Z27	X28	Y28	Z28	X29	Y29	Z29	X30	Y30	Z30	X31	Y31	Z31	X32	Y32	Z32	X33	Y33	Z33	X34	Y34	Z34	X35	Y35	Z35	X36	Y36	Z36	X37	Y37	Z37	X38	Y38	Z38	X39	Y39	Z39	X40	Y40	Z40	X41	Y41	Z41	X42	Y42	Z42	X43	Y43	Z43	X44	Y44	Z44	X45	Y45	Z45	X46	Y46	Z46	X47	Y47	Z47	X48	Y48	Z48	

162	1.610	-993.29675	977.86279	1622.07605	-866.58740	938.28864	1614.60889	-1030.83655	852.80933	1587.49841	-905.21515	818.32990	1579.10571	-980.04364	804.53351	1411.17859	-983.18311	793.80957	1095.88940	-972.09430	928.72333	1342.94250	-977.97369	987.62341	1182.24866	-888.41986	759.55676	1227.63184	-1129.34912	885.43127	1380.33752	-1206.38135	892.67120	1185.04773	-1219.53357	911.27637	1062.93530	-1216.09241	955.13306	939.84613	-1182.72180	992.34106	828.37524	-1233.42993	969.89417	827.15833	-1221.98901	1002.69965	750.61798	-816.56665	867.59570	1362.77417	-735.55286	893.68622	1146.20886	-716.88757	927.79462	1039.75281	-710.40399	974.34741	911.02924	-742.41437	1027.89233	825.03522	-699.89160	996.67773	813.43719	-706.71368	1036.08838	749.88916	-1092.30969	966.15332	940.61005	-856.17725	955.24225	940.25946	-1051.43958	800.98859	956.30658	-902.80469	796.51178	970.47388	-1152.93555	994.56085	648.07477	-1125.97754	1063.06726	482.21240	-1126.07349	1000.82910	292.35904	-1087.34131	956.94501	88.29357	-1048.45300	911.10382	57.88642	-1065.45105	1095.74219	37.30657	-826.15051	881.98401	643.46680	-866.78571	877.27405	465.95654	-867.69836	810.42224	283.80066	-921.42712	758.01392	74.55683	-971.91803	710.15576	46.38686	-938.32416	896.24799	31.78576	-962.17108	886.77899	1683.00098																								 
163	1.620	-992.68396	991.00372	1620.67798	-865.98224	951.16827	1613.33276	-1030.46899	866.08649	1585.85876	-904.85950	831.24304	1577.50134	-979.77380	817.78491	1409.80811	-983.56281	806.15155	1094.53784	-971.33948	941.85126	1341.26257	-976.84692	1000.20337	1180.35681	-888.30426	771.90625	1226.25635	-1128.90259	899.56281	1378.74939	-1205.34021	904.49176	1182.91516	-1218.74609	920.21198	1060.41028	-1216.53796	958.80573	935.45477	-1184.82349	990.27924	821.67865	-1235.76038	968.05945	822.33063	-1225.29285	996.75305	743.92212	-816.12469	880.03107	1361.10925	-734.07935	907.97076	1145.48181	-714.78345	943.86572	1039.85559	-708.24567	994.54578	912.76398	-740.15570	1051.56445	829.10895	-698.23071	1020.24158	815.90613	-704.97894	1062.14246	754.04297	-1090.99695	979.51453	939.20441	-855.34357	965.23157	938.28857	-1052.51501	813.82574	954.49866	-903.87451	807.64856	968.68213	-1152.46497	1009.99896	647.72552	-1124.35608	1078.16467	482.05896	-1126.64978	1027.09009	289.16333	-1089.99133	997.37140	82.09108	-1051.60596	953.14764	48.44616	-1066.35034	1138.98145	38.83958	-825.97644	888.87787	642.27576	-866.72180	882.15118	464.73041	-868.05334	813.21173	283.41437	-922.01276	758.07947	74.73132	-972.45673	710.15619	46.85981	-938.12634	896.49512	31.84686	-961.86261	899.74512	1681.49036																								 
164	1.630	-992.01544	1004.17163	1619.11096	-865.42566	964.02020	1611.85510	-1030.08032	879.36816	1583.95569	-904.65552	844.19159	1575.70740	-979.42047	831.04431	1408.16663	-984.07434	818.66785	1092.90063	-970.58490	955.05975	1339.38391	-975.63593	1012.83557	1178.21448	-888.53448	784.22369	1224.74609	-1128.50195	913.72729	1376.97388	-1204.36206	916.25555	1180.60315	-1217.87329	929.03009	1057.59802	-1217.20300	962.21320	931.12201	-1186.98621	988.31506	815.58215	-1238.30505	966.38879	818.21454	-1228.56750	990.77985	737.97949	-815.68408	892.45355	1359.27295	-732.71326	922.08826	1144.51587	-712.78326	959.72028	1039.69580	-706.27148	1014.50726	914.37048	-738.08179	1074.88098	833.21588	-696.75562	1043.43286	818.37042	-703.34619	1087.80444	758.37720	-1090.07007	993.43958	937.44098	-854.42279	975.71466	936.18500	-1053.64771	826.76837	952.67059	-905.04932	818.81073	966.67297	-1152.08679	1024.94006	646.78900	-1122.37073	1092.62927	481.48486	-1127.35669	1052.80151	286.43204	-1093.22339	1037.35510	76.90402	-1055.34399	994.98938	40.89556	-1067.31982	1181.48267	41.27784	-825.87488	896.24854	640.86816	-866.85437	887.64337	463.28226	-868.58966	816.39227	282.85764	-922.64026	758.44043	75.04904	-973.23120	710.36517	47.42973	-938.60205	896.35822	31.66847	-961.52002	912.67114	1679.78015																								 
165	1.640	-991.38660	1017.31226	1617.41138	-864.87634	976.88458	1610.21960	-1029.70947	892.70343	1581.97925	-904.41724	857.13184	1573.72791	-979.26550	844.50525	1406.22913	-984.70551	831.15918	1091.15259	-969.84161	968.36755	1337.32739	-974.48267	1025.54443	1175.92993	-888.95587	796.42877	1223.13513	-1128.19263	928.00873	1375.02087	-1203.57520	928.02325	1178.23328	-1217.14490	937.85065	1054.93713	-1217.78503	965.75867	927.14758	-1188.86279	986.08728	809.92639	-1240.29248	964.72357	814.23572	-1231.72363	984.84784	732.75708	-815.26123	904.92731	1357.28137	-731.41656	936.03656	1143.27869	-710.99286	975.25616	1039.30066	-704.58575	1034.15112	915.95221	-736.03644	1097.31543	837.38086	-695.51300	1066.20740	820.86426	-701.88702	1112.99084	762.81512	-1088.72668	1006.74011	935.26373	-853.30542	986.26569	933.86719	-1054.83972	839.95251	950.69073	-906.07959	829.89642	964.33728	-1151.30652	1039.09766	645.32684	-1120.41736	1106.76550	480.46463	-1127.94019	1078.06018	284.05261	-1096.53040	1076.83569	73.51900	-1059.62305	1036.10095	35.13874	-1068.22119	1223.03564	45.40241	-825.85461	903.98639	639.41144	-867.02252	893.61908	461.71994	-869.22852	819.95557	282.32312	-923.41656	758.82397	75.47617	-974.16962	710.77716	48.23716	-938.73907	896.49030	31.62042	-961.14990	925.59320	1677.89685																								 
166	1.650	-990.60022	1030.41113	1615.56677	-864.28693	989.77100	1608.43066	-1029.36841	906.04755	1579.82996	-904.09967	870.13330	1571.64441	-979.39288	858.15668	1404.47437	-985.36957	843.74023	1089.29688	-969.09662	981.75769	1335.16235	-973.25293	1038.23962	1173.47192	-889.63116	808.54877	1221.28650	-1127.84241	942.40833	1372.95288	-1203.11511	939.51422	1175.56323	-1216.51013	946.64117	1052.34558	-1218.41589	969.48590	923.54547	-1191.05994	984.91284	805.31299	-1242.52576	963.62573	811.09943	-1234.77222	978.99445	728.24982	-814.82446	917.36108	1355.09680	-730.27106	949.79816	1141.80554	-709.36835	990.75122	1038.77380	-703.01654	1053.38892	917.38593	-734.40851	1119.48901	841.27509	-694.41675	1088.46729	823.30225	-700.47858	1137.62378	767.37817	-1087.45764	1020.65961	933.18811	-852.28564	997.08124	931.53723	-1056.09827	853.30450	948.48999	-907.38397	841.31708	961.95001	-1150.48267	1052.40466	643.17401	-1118.38538	1120.50891	478.75546	-1128.81396	1102.61877	282.30573	-1099.98499	1115.03369	71.63536	-1064.09509	1075.92078	30.94822	-1069.11865	1262.53918	50.58304	-825.85632	912.05786	638.00043	-867.22113	899.88544	460.22778	-869.80078	823.58490	281.63672	-924.15576	759.32190	75.99603	-974.97357	710.92145	49.26625	-938.89056	896.56268	31.55573	-960.85400	938.54590	1675.89746																								 
167	1.660	-990.11041	1043.69727	1613.76941	-863.73053	1002.63159	1606.59924	-1029.00024	919.41351	1577.61267	-903.87018	883.21655	1569.42957	-979.35217	871.54962	1402.55664	-986.49579	856.50665	1087.26917	-968.33112	995.16187	1332.89734	-972.01776	1051.02222	1171.00171	-890.39075	820.87042	1219.64209	-1127.52026	956.98822	1370.79858	-1202.68860	951.16614	1173.17236	-1216.02661	955.45215	1049.91931	-1219.09143	973.62152	920.33258	-1192.96448	983.61066	800.83154	-1244.37756	962.87964	808.32373	-1237.73779	973.61688	724.68127	-814.43262	929.70459	1352.81128	-729.30084	963.40564	1140.23254	-708.07257	1006.14917	1038.11633	-701.75549	1072.27344	918.69592	-733.00830	1140.98730	845.01849	-693.53394	1109.98608	825.56207	-699.15466	1161.57593	772.03503	-1086.21570	1034.68665	931.05725	-851.18146	1007.66858	929.10168	-1057.33447	866.72095	946.33142	-908.60974	852.85553	959.38617	-1150.03284	1065.14417	640.48962	-1116.12146	1134.05957	476.93884	-1129.65674	1126.49670	281.29810	-1103.61206	1151.60388	71.22692	-1068.89111	1114.08728	28.56410	-1069.96069	1299.78064	56.83218	-825.85333	920.55896	636.59467	-867.35455	906.19513	458.92465	-870.31494	827.64252	281.51456	-924.85852	759.67035	76.79305	-975.72650	711.21851	50.53983	-939.06970	896.64935	31.53001	-960.51123	951.47620	1673.82117																								 
